<svg xmlns="http://www.w3.org/2000/svg" version="1.1" xmlns:xlink="http://www.w3.org/1999/xlink"
     xmlns:svgjs="http://svgjs.com/svgjs">
    <g transform="matrix(1,0,0,1,80,44)">
        <g id="instance9" transform="matrix(1,0,0,1,0,0)">
            <path d="M35 -0.85 Q35.45 -0.1 34.2 0.6 33 1.25 30.95 1 28.8 0.75 24 2.45 19.1 4.15 16.15 4.75 13.15 5.3 10.45 4.85 7.9 4.45 2.8 2.25 L-1.75 0.05 -5.95 0.05 -13.25 3.15 Q-18.1 5.15 -12.65 0.6 L-15.5 2.35 -13.4 0.05 -11.65 -0.5 -6 -1.95 -5.8 -2 -3.05 -2.5 2 -0.1 Q8.65000000000001 2.35 13.4 1.25 18.25 0.0999999999999992 25.35 -0.9 L34.1 -1.3 Q34.55 -1.65 35 -0.85"
                  fill="url(#SvgjsLinearGradient1000)"></path>
        </g>
        <g id="color_1" transform="matrix(1,0,0,1,-17.35,-23.65)">
            <path d="M6.35 7.75 L8.4 6.35 Q17.2 0.65 26.35 0.1 35.35 -0.45 41.3 2.45 46 4.75 49.25 9.5 51.55 12.95 52.35 17.8 52.75 20.25 52.65 21.95 L50.05 20.8 Q46.95 19.6 44.3 19.5 33.1 19.25 17.2 22.2 5.9 24.35 2.25 26.65 L1.55 27.25 Q1.05 27.25 0.8 25.9 L0.65 24.5 0.65 24.15 0.05 17.4 0.05 15.65 Q0.200000000000004 12.5 5.25 8.6 4.5 9.3 3.85 10.35 3.2 11.3 2.2 13.55 0.800000000000004 16.7 0.25 18.5 L0.9 19.1 1.15 18.25 1.15 18.1 1.55 16.3 1.8 16.55 2.05 15.95 Q1.45 15.6 1.9 15.15 L1.95 15.1 2.45 13.8 2.85 14.25 3.15 13.75 Q2.85 13.8 2.65 13.5 2.45 13.15 2.75 12.95 L2.9 12.8 3.6 11.55 4.15 12.15 4.45 11.7 4.3 11.65 4 11.3 4.1 10.85 4.05 10.85 5.15 9.25 5.85 10 6.15 9.65 6.1 9.65 5.7 9.3 Q5.3 8.95 5.7 8.65 L5.65 8.6 6.4 7.75 6.35 7.75 M0.65 24.5 Q1.1 24.5 1.15 24.15 L1.45 22.85 1.8 23.15 2.05 22.2 1.7 21.9 2.15 20.3 2.5 20.55 2.8 19.7 2.45 19.4 3.1 17.8 3.45 18.15 3.7 17.6 Q3.35 17.45 3.45 17 L3.45 16.95 4.15 15.55 4.65 16 5 15.5 Q4.45 15.6 4.45 15.05 L4.45 15 Q4.45 14.75 4.6 14.65 L5.3 13.35 6 14.05 6.35 13.55 6.25 13.55 5.85 13.15 5.85 12.7 5.75 12.65 6.8 11 7.55 11.8 7.9 11.3 7.45 11.05 7.4 11 Q7.15 10.75 7.35 10.4 L7.25 10.35 8.7 8.35 9.5 9 9.9 8.55 9.7 8.5 9.4 8.25 Q9.2 8 9.3 7.75 L9.25 7.7 8.95 8.05 5.65 11.8 5.5 11.95 5.5 12 Q2 16.4 0.7 24.3 L0.65 24.5 M16.65 3.75 L16.3 2.95 15.5 3.25 15.55 3.5 12.6 6.5 12.5 6.95 Q10.9 8.65 8.95 11.45 L5.7 16.2 Q3.15 19.85 2.3 26.05 L2 26.45 1.5 26.45 1.45 26.6 Q1.35 26.95 1.7 26.95 L1.95 26.75 2.4 26.55 3 24.05 3.3 24.25 3.65 23.4 3.3 23.15 3.8 21.65 4.25 22 4.5 21.5 Q4.05 21.35 4.15 20.85 L4.1 20.8 4.75 19.35 5.3 19.8 5.55 19.25 5.5 19.2 5.4 19.15 Q5.1 18.95 5.2 18.6 L5.1 18.55 5.8 17.15 6.4 17.65 6.7 17.2 6.35 17.05 6.3 17.05 Q6.05 16.8 6.25 16.4 L7.05 15.05 7.75 15.7 8.1 15.2 7.6 14.85 Q7.4 14.65 7.5 14.35 L7.5 14.3 8.55 12.75 9.25 13.45 9.6 12.9 9.2 12.75 Q8.85 12.55 9.05 12.1 L9 12.05 10.65 9.95 11.35 10.5 11.75 10.1 11.65 10.1 11.25 9.85 11.25 9.35 11.2 9.3 12.25 8.05 13.5 8.95 12.8 9.8 Q13.15 10.15 12.8 10.45 11.95 11.25 11 12.7 L9.35 15.1 Q7.15 18.1 6.65 19.25 L4.1 24.9 3.95 25.6 5.5 24.8 5.35 24.45 5.25 24.4 5.7 23.05 6.4 23.55 6.55 23.15 6.2 23 5.95 22.6 6.05 22.15 6.6 20.9 7.25 21.4 7.5 20.85 7.45 20.85 7.2 20.7 Q6.9 20.55 7 20.15 L6.95 20.1 7.65 18.7 8.25 19.2 8.6 18.6 8.45 18.6 Q8.05 18.45 8.15 18 L8.05 17.95 8.85 16.6 9.45 17.1 9.7 16.75 9.3 16.45 Q9.2 16.15 9.35 15.95 L9.3 15.9 10.3 14.35 10.95 14.9 11.25 14.6 11.2 14.55 10.85 14.25 Q10.45 13.85 10.9 13.55 L12.55 11.4 13.8 12.25 12.75 13.65 Q12.95 14.05 12.75 14.3 9.2 18.4 7.35 24.05 L8.4 23.75 8.05 23.55 8.55 22.35 9.75 23.15 9.95 22.65 9.8 22.6 9.15 22.15 Q8.9 21.9 9.05 21.6 L8.9 21.55 9.55 20.2 10.65 20.95 10.85 20.55 10 20 Q9.65 19.65 10.05 19.25 L10.75 18.1 11.7 18.75 11.95 18.3 11.85 18.3 11.4 18.05 Q10.95 17.8 11.25 17.4 L11.2 17.35 12.15 15.85 13.35 16.75 Q13.65 16.8 13.8 17.05 L13.7 17.6 Q13 18.3 11.8 20.95 L10.8 23.2 11.45 23.15 11.1 22.95 11.75 21.7 13.55 22.7 14.2 22.55 12.45 21.6 Q12.05 21.35 12.25 20.95 L12.2 20.9 12.95 19.6 16.75 21.65 16.85 21.6 17.95 21.2 Q16.2 20.5 14.4 19.4 14.2 19.8 13.85 19.65 L13.8 19.6 13.4 19.35 13.4 18.85 14.35 17.4 14.8 17.7 14.75 17.55 Q14.75 17.05 15 16.8 L14.85 16.7 16.05 15.15 15.7 14.3 14.15 16.25 12.65 15.15 14.5 12.7 15.4 13.25 15.25 12.1 15.1 12 15.2 11.9 15.15 10.7 14.4 11.55 13.1 10.7 14.2 9.45 15.1 10.1 15.1 9.6 15.1 9.05 14.75 8.8 15.15 8.4 15.2 7.2 14.1 8.35 12.85 7.4 15.9 4.25 16.05 4.4 16.65 3.75"
                  fill-opacity="1" fill="#dfdfdf"></path>
            <path d="M6.35 7.75 L6.4 7.75 5.65 8.6 5.7 8.65 Q5.3 8.95 5.7 9.3 L6.1 9.65 6.15 9.65 5.85 10 5.15 9.25 4.05 10.85 4.1 10.85 4 11.3 4.3 11.65 4.45 11.7 4.15 12.15 3.6 11.55 2.9 12.8 2.75 12.95 Q2.45 13.15 2.65 13.5 2.85 13.8 3.15 13.75 L2.85 14.25 2.45 13.8 1.95 15.1 1.9 15.15 Q1.45 15.6 2.05 15.95 L1.8 16.55 1.55 16.3 1.15 18.1 1.15 18.25 0.9 19.1 0.25 18.5 Q0.800000000000004 16.7 2.2 13.55 3.2 11.3 3.85 10.35 4.5 9.3 5.25 8.6 L6.25 7.75 6.35 7.75 M0.65 24.5 L0.7 24.3 Q2 16.4 5.5 12 L5.5 11.95 5.65 11.8 8.95 8.05 9.25 7.7 9.3 7.75 Q9.2 8 9.4 8.25 L9.7 8.5 9.9 8.55 9.5 9 8.7 8.35 7.25 10.35 7.35 10.4 Q7.15 10.75 7.4 11 L7.45 11.05 7.9 11.3 7.55 11.8 6.8 11 5.75 12.65 5.85 12.7 5.85 13.15 6.25 13.55 6.35 13.55 6 14.05 5.3 13.35 4.6 14.65 Q4.45 14.75 4.45 15 L4.45 15.05 Q4.45 15.6 5 15.5 L4.65 16 4.15 15.55 3.45 16.95 3.45 17 Q3.35 17.45 3.7 17.6 L3.45 18.15 3.1 17.8 2.45 19.4 2.8 19.7 2.5 20.55 2.15 20.3 1.7 21.9 2.05 22.2 1.8 23.15 1.45 22.85 1.15 24.15 Q1.1 24.5 0.65 24.5 M16.65 3.75 L16.05 4.4 15.9 4.25 12.85 7.4 14.1 8.35 15.2 7.2 15.15 8.4 14.75 8.8 15.1 9.05 15.1 9.6 15.1 10.1 14.2 9.45 13.1 10.7 14.4 11.55 15.15 10.7 15.2 11.9 15.1 12 15.25 12.1 15.4 13.25 14.5 12.7 12.65 15.15 14.15 16.25 15.7 14.3 16.05 15.15 14.85 16.7 15 16.8 Q14.75 17.05 14.75 17.55 L14.8 17.7 14.35 17.4 13.4 18.85 13.4 19.35 13.8 19.6 13.85 19.65 Q14.2 19.8 14.4 19.4 16.2 20.5 17.95 21.2 L16.85 21.6 16.75 21.65 12.95 19.6 12.2 20.9 12.25 20.95 Q12.05 21.35 12.45 21.6 L14.2 22.55 13.55 22.7 11.75 21.7 11.1 22.95 11.45 23.15 10.8 23.2 11.8 20.95 Q13 18.3 13.7 17.6 L13.8 17.05 Q13.65 16.8 13.35 16.75 L12.15 15.85 11.2 17.35 11.25 17.4 Q10.95 17.8 11.4 18.05 L11.85 18.3 11.95 18.3 11.7 18.75 10.75 18.1 10.05 19.25 Q9.65 19.65 10 20 L10.85 20.55 10.65 20.95 9.55 20.2 8.9 21.55 9.05 21.6 Q8.9 21.9 9.15 22.15 L9.8 22.6 9.95 22.65 9.75 23.15 8.55 22.35 8.05 23.55 8.4 23.75 7.35 24.05 Q9.2 18.4 12.75 14.3 12.95 14.05 12.75 13.65 L13.8 12.25 12.55 11.4 10.9 13.55 Q10.45 13.85 10.85 14.25 L11.2 14.55 11.25 14.6 10.95 14.9 10.3 14.35 9.3 15.9 9.35 15.95 Q9.2 16.15 9.3 16.45 L9.7 16.75 9.45 17.1 8.85 16.6 8.05 17.95 8.15 18 Q8.05 18.45 8.45 18.6 L8.6 18.6 8.25 19.2 7.65 18.7 6.95 20.1 7 20.15 Q6.9 20.55 7.2 20.7 L7.45 20.85 7.5 20.85 7.25 21.4 6.6 20.9 6.05 22.15 5.95 22.6 6.2 23 6.55 23.15 6.4 23.55 5.7 23.05 5.25 24.4 5.35 24.45 5.5 24.8 3.95 25.6 4.1 24.9 6.65 19.25 Q7.15 18.1 9.35 15.1 L11 12.7 Q11.95 11.25 12.8 10.45 13.15 10.15 12.8 9.8 L13.5 8.95 12.25 8.05 11.2 9.3 11.25 9.35 11.25 9.85 11.65 10.1 11.75 10.1 11.35 10.5 10.65 9.95 9 12.05 9.05 12.1 Q8.85 12.55 9.2 12.75 L9.6 12.9 9.25 13.45 8.55 12.75 7.5 14.3 7.5 14.35 Q7.4 14.65 7.6 14.85 L8.1 15.2 7.75 15.7 7.05 15.05 6.25 16.4 Q6.05 16.8 6.3 17.05 L6.35 17.05 6.7 17.2 6.4 17.65 5.8 17.15 5.1 18.55 5.2 18.6 Q5.1 18.95 5.4 19.15 L5.5 19.2 5.55 19.25 5.3 19.8 4.75 19.35 4.1 20.8 4.15 20.85 Q4.05 21.35 4.5 21.5 L4.25 22 3.8 21.65 3.3 23.15 3.65 23.4 3.3 24.25 3 24.05 2.4 26.55 1.95 26.75 1.7 26.95 Q1.35 26.95 1.45 26.6 L1.5 26.45 2 26.45 2.3 26.05 Q3.15 19.85 5.7 16.2 L8.95 11.45 Q10.9 8.65 12.5 6.95 L12.6 6.5 15.55 3.5 15.5 3.25 16.3 2.95 16.65 3.75"
                  fill-opacity="1" fill="#9f9f9f"></path>
            <path d="M41.9 2.8 Q46.25 5.1 49.25 9.55 51.55 13 52.35 17.85 52.75 20.3 52.65 22 L50.05 20.85 Q46.95 19.65 44.3 19.55 33.1 19.3 17.2 22.25 5.9 24.4 2.25 26.7 L1.55 27.3 Q1.05 27.3 0.8 25.95 L0.65 24.2 0.05 17.45 0.05 15.7 Q0.0999999999999983 14.25 1.7 12.2 1.55 14.7 2.4 17.05 3.2 19.1 4.65 20.3 6.3 21.65 8.4 21.6 L10.45 21.55 14.5 21.05 15.5 20.65 15.5 20.7 15.65 20.55 Q18.85 18.8 18.9 15.3 18.95 11.95 16.25 10.05 L18.5 7.85 Q21.75 4.85 26.65 1.85 L28.55 0.05 Q36.55 -0.0500000000000003 41.9 2.8"
                  fill="url(#SvgjsLinearGradient1001)"></path>
            <path d="M30 7.3 Q32.9 10.05 34.95 12.6 L31.75 20.1 Q25.6 20.7 17.2 22.25 5.9 24.4 2.25 26.7 L1.55 27.3 Q1.05 27.3 0.8 25.95 L0.65 24.2 0.05 17.45 0.05 15.7 Q0.150000000000001 14.5 1.05 13.05 0.400000000000001 16.1 1.05 18.7 L1.85 21.45 Q2.1 21.95 2.7 22.1 L4.4 22.5 3.6 23.1 Q2.75 23.75 2.7 24.1 L2.65 24.9 Q2.9 25.1 4.7 24.35 6.55 23.6 9.45 22.85 L12.8 22.2 13.65 22.1 Q12.45 19.4 12 15.65 11.1 8.2 14.9 3.2 L15.15 2.85 Q17.55 1.9 20.1 1.2 24.25 1.9 30 7.3"
                  fill="url(#SvgjsLinearGradient1002)"></path>
        </g>
        <g id="color_2" transform="matrix(1,0,0,1.022216796875,-4.6,-23.9)">
            <path d="M34.75 9.4 Q35 10.8 34.3 11.1 L26.4 11.35 14.65 10.85 Q9.95 10.65 9.45 7.65 9.05 5.05 11.3 3.1 14.35 0.3 22.65 1.25 29.75 2.1 33.2 6.35 34.5 7.95 34.75 9.4"
                  fill-opacity="1" fill="#ffffff"></path>
            <path d="M34.75 9.4 Q34.5 7.95 33.2 6.35 29.75 2.1 22.65 1.25 14.35 0.3 11.3 3.1 9.05 5.05 9.45 7.65 9.95 10.65 14.65 10.85 L26.4 11.35 34.3 11.1 Q35 10.8 34.75 9.4 M39.35 15.7 L38.9 14.2 Q38.75 16.55 36.15 14.45 32.3 14.75 29.25 16.25 26.15 17.7 20.7 13.95 15.2 10.2 12.15 14.15 9.05 18.1 5.45 16 1.85 13.9 1.5 9.6 L1.5 9.2 1.35 11.7 Q1.4 15.4 2.05 18.5 L3.05 22.45 Q1.95 21.1 1.15 18.9 -0.149999999999997 15.25 0 10.55 0.200000000000003 5.6 2.8 2.75 8.25 0.450000000000002 13.8 0.1 22.8 -0.449999999999998 28.75 2.45 33.45 4.75 36.7 9.5 38.5 12.15 39.35 15.7"
                  fill-opacity="1" fill="#dfdfdf"></path>
            <path d="M3.05 22.45 L2.05 18.5 Q1.4 15.4 1.35 11.7 L1.5 9.2 1.5 9.6 Q1.85 13.9 5.45 16 9.05 18.1 12.15 14.15 15.2 10.2 20.7 13.95 26.15 17.7 29.25 16.25 32.3 14.75 36.15 14.45 38.75 16.55 38.9 14.2 L39.35 15.7 39.7 17.15 39.8 17.8 40.1 20.4 40.1 21.95 Q39.1 21.4 37.5 20.8 34.4 19.6 31.75 19.5 20.55 19.25 4.65 22.2 L3.1 22.5 3.05 22.45 M40 21.05 Q39.4 20.4 37.25 19.7 32.9 18.25 25 17.95 17.15 17.65 9.35 19.95 5.45 21.15 3.15 22.35 21.2 18.6 32.4 19.45 38 19.9 40 21.05"
                  fill-opacity="1" fill="#bfbfbf"></path>
            <path d="M40 21.05 Q38 19.9 32.4 19.45 21.2 18.6 3.15 22.35 5.45 21.15 9.35 19.95 17.15 17.65 25 17.95 32.9 18.25 37.25 19.7 39.4 20.4 40 21.05"
                  fill-opacity="1" fill="#9f9f9f"></path>
        </g>
        <g id="color_4" transform="matrix(1,0,0,1,7.7,-20.75)">
            <path d="M23.45 11.4 Q23.3 14.4 21.5 14.45 11.9 14.3 6 14.45 2 14.6 0.6 10.5 -0.550000000000005 7.05 0.6 3.7 1.25 1.8 3.9 0.8 6.19999999999999 -0.050000000000001 9.25 0 14.75 0.149999999999999 17.9 2.05 19.9 3.25 22 6.2 23.6 8.45 23.45 11.4 M20.3 4.35 Q17.85 1.3 12.8 0.65 6.85 -0.0500000000000002 4.65 2 3.05 3.4 3.35 5.3 3.7 7.5 7.05 7.65 L15.45 8 21.1 7.8 Q21.6 7.6 21.45 6.6 21.25 5.55 20.3 4.35"
                  fill-opacity="1" fill="#dfdfdf"></path>
            <path d="M20.3 4.35 Q21.25 5.55 21.45 6.6 21.6 7.6 21.1 7.8 L15.45 8 7.05 7.65 Q3.7 7.5 3.35 5.3 3.05 3.4 4.65 2 6.85 -0.0500000000000002 12.8 0.65 17.85 1.3 20.3 4.35"
                  fill-opacity="1" fill="#ffffff"></path>
            <path d="M17.9 13.5 L21.2 13.7 Q22.65 13.65 23.15 12.95 22.65 14.4 21.5 14.45 11.9 14.3 6 14.45 2 14.6 0.6 10.5 -0.55 7.05 0.6 3.7 1.05 2.45 2.3 1.55 1.35 3.6 1.55 6.65 1.75 9.2 2.65 10.95 3.9 13.35 6.2 13.4 L12.2 13.35 17.9 13.5"
                  fill-opacity="1" fill="#7f7f7f"></path>
        </g>
        <g id="color_3"
           transform="matrix(0.9471909431905413,-0.035876760756498906,0.035877319360788563,0.8988872478204538,-4.05,-5.1)">
            <path d="M19.25 0.1 L19.85 0.1 Q18.2 0.299999999999998 16.25 0.85 13.9 1.5 13.65 2.05 12.95 3.55 15.85 4.9 19.35 6.5 25.35 5.85 L37.05 5.1 Q42.1 5.1 44.5 6.25 46.1 6.95 48.25 8.65 49.55 9.65 49.7 9.05 49.85 9.65 49.4 9.65 L48.55 9.45 48.3 9.15 Q47.3 8.15 45.3 7.25 42.4 6 38.55 5.65 35 5.35 29.7 6.45 L20.75 8.35 13.6 8.55 Q11.55 8.2 7.8 6.75 4.20000000000001 5.25 1.4 2.85 4.70000000000001 1.75 14.6 0.55 L14.8 0.55 18.65 0.15 19.25 0.1 M47.6 8.95 L48.55 9.45 48.45 9.45 48.2 9.3 47.6 8.95"
                  fill-opacity="1" fill="#bfbfbf"></path>
            <path d="M48.55 9.45 L49.4 9.65 Q49.85 9.65 49.7 9.05 49.55 9.65 48.25 8.65 46.1 6.95 44.5 6.25 42.1 5.1 37.05 5.1 L25.35 5.85 Q19.35 6.5 15.85 4.9 12.95 3.55 13.65 2.05 13.9 1.5 16.25 0.85 18.2 0.299999999999998 19.85 0.1 L19.25 0.1 25.9 0.05 Q30.5 0.25 33.25 1.1 45.25 4.7 48.3 7.25 49.8 8.5 49.75 9.35 L48.45 9.45 48.55 9.45 M39.2 4.1 Q40.1 4.2 39.4 3.6 38.65 2.95 37.3 2.6 L34.4 1.7 29.55 0.75 24.25 1 Q21.2 1.65 24 2.8 L27.75 3.65 31.65 3.85 39.2 4.1"
                  fill-opacity="1" fill="#dfdfdf"></path>
            <path d="M1.4 2.85 Q4.20000000000001 5.25 7.8 6.75 11.55 8.2 13.6 8.55 L20.75 8.35 29.7 6.45 Q35 5.35 38.55 5.65 42.4 6 45.3 7.25 47.3 8.15 48.3 9.15 L48.55 9.45 47.6 8.95 Q45 7.4 42.25 6.85 L34.85 6.5 Q32.1 6.65 25.25 8.2 19 9.65 15.9 9.55 10.45 9.4 4.65 6.45 L0 3.5 Q0.399999999999999 3.2 1.4 2.85"
                  fill-opacity="1" fill="#5f5f5f"></path>
            <path d="M39.2 4.1 L31.65 3.85 27.75 3.65 24 2.8 Q21.2 1.65 24.25 1 L29.55 0.75 34.4 1.7 37.3 2.6 Q38.65 2.95 39.4 3.6 40.1 4.2 39.2 4.1"
                  fill-opacity="1" fill="#ffffff"></path>
        </g>
        <g id="color_5" transform="matrix(1,0,0,1,10.35,-20.3)">
            <path d="M15.5 2.1 Q16.8 2.85 17.35 3.5 17.6 3.65 17.35 3.9 L17.15 3.95 16.95 3.85 15.2 2.6 Q15 2.4 15.15 2.2 15.25 1.85 15.5 2.1 M14.25 2.05 Q13.3 1.6 12.2 1.3 11.9 1.2 12 0.95 12.1 0.65 12.35 0.75 L14.5 1.55 Q14.75 1.7 14.65 1.95 14.6 2.1 14.35 2.1 L14.25 2.05 M17.7 4.35 L18.05 4.4 19.25 6.35 19.3 6.55 19.15 6.7 19 6.75 18.75 6.6 17.6 4.7 17.55 4.5 17.7 4.35 M19.75 7.35 Q20.3 8.55 20.35 9.55 L20.1 9.9 20.05 9.9 19.8 9.6 19.25 7.55 19.25 7.35 19.4 7.2 Q19.65 7.1 19.75 7.35 M20.3 11.55 Q20.15 12.35 18.9 12.5 L18.85 12.5 18.6 12.25 Q18.5 12 18.85 11.9 19.7 11.8 19.7 11.5 L19.8 10.7 Q19.8 10.45 20.1 10.45 L20.35 10.7 20.3 11.55 M17.75 11.95 Q18.1 11.95 18 12.25 L17.75 12.5 17.7 12.5 15.45 12.3 15.2 11.95 Q15.2 11.65 15.5 11.75 L17.75 11.95 M14.4 11.6 L14.65 11.9 14.35 12.15 14.3 12.15 12.1 11.9 11.85 11.6 Q11.85 11.35 12.1 11.35 L13.25 11.4 14.4 11.6 M8.9 0.15 L11.2 0.45 11.1 1 8.85 0.7 8.6 0.4 Q8.6 0.05 8.9 0.15 M7.75 0.6 L5.5 0.6 5.2 0.35 Q5.2 0.05 5.5 0.05 L7.8 0.05 Q8.05 0.05 8.05 0.35 L7.75 0.6 M4.4 0.7 Q3.15 0.85 2.35 1.25 L2.2 1.3 1.95 1.15 Q1.85 0.9 2.05 0.8 3.1 0.3 4.35 0.15 L4.65 0.4 4.4 0.7 M1.5 1.5 L1.55 1.9 Q0.85 2.65 0.65 3.75 L0.4 4 0.35 4 Q1.66533453693773e-16 3.9 0.1 3.65 0.3 2.4 1.1 1.55 L1.5 1.5 M0.55 4.8 L0.55 5.05 0.7 7 0.45 7.3 0.4 7.3 0.15 7.05 0 5.05 0 4.8 Q8.32667268468867e-17 4.5 0.25 4.5 L0.55 4.8 M0.9 8.05 Q1.15 9.2 1.65 10 1.8 10.2 1.6 10.4 L1.45 10.45 1.2 10.3 Q0.55 9.35 0.35 8.15 0.25 7.85 0.55 7.85 0.8 7.75 0.9 8.05 M2.35 10.8 Q3.1 11.45 4.2 11.55 L4.5 11.85 4.2 12.1 Q2.95 12.05 1.95 11.2 1.8 11.05 1.95 10.8 2.15 10.6 2.35 10.8 M11 11.9 L8.7 12 8.45 11.75 Q8.45 11.45 8.7 11.45 L11 11.35 11.25 11.6 11 11.9 M5.35 12.15 Q5.05 12.15 5.05 11.85 5.05 11.6 5.35 11.6 L7.6 11.5 7.9 11.75 7.6 12.05 5.35 12.15"
                  fill-opacity="1" fill="#ffffff"></path>
            <path d="M14.5 8.5 L14.15 9.8 13.3 10.4 11.7 10.45 Q9.4 10.45 8.7 9.95 8.4 9.7 8.3 9.1 L8.25 8.5 14.5 8.5"
                  fill-opacity="1" fill="#ffffff"></path>
            <path d="M9.05 3.8 Q8.6 3.7 8.3 4.05 7.95 4.45 8.15 5.1 8.45 6.25 9.65 5.95 10.15 5.8 10.05 4.9 9.9 3.95 9.05 3.8 M14.15 4.3 L14.45 6.1 11.95 6.15 9.35 6.45 8 6.7 7.8 6.4 7.25 5.05 Q6.85 3.85 7.05 3.45 7.25 3.1 8.05 2.85 L7.3 2.1 6.25 2.45 5.15 2.3 4.5 2.1 4.75 1.7 Q5.15 1.25 5.95 1.1 7.3 0.9 7.6 1.75 L8.3 1.85 9.85 2.4 10 2.4 Q12.3 2.3 13.3 3 13.85 3.4 14.15 4.3 M13.7 5.4 Q13.9 5 13.75 4.4 13.6 3.75 13.1 3.6 12.75 3.5 12.55 3.85 L12.45 4.55 Q12.5 4.9 13 5.3 L13.7 5.4"
                  fill-opacity="1" fill="#ffffff"></path>
        </g>
    </g>
    <defs>
        <linearGradient gradientUnits="userSpaceOnUse" x1="-819.2" x2="819.2"
                        gradientTransform="matrix(0.0316162109375,0,0,-0.0264434814453125,10.3,0.4)"
                        id="SvgjsLinearGradient1000">
            <stop stop-opacity="0.2" stop-color="#000000" offset="0"></stop>
            <stop stop-opacity="0.2" stop-color="#000000" offset="0.8588235294117647"></stop>
            <stop stop-opacity="0.2" stop-color="#000000" offset="1"></stop>
        </linearGradient>
        <linearGradient gradientUnits="userSpaceOnUse" x1="-819.2" x2="819.2"
                        gradientTransform="matrix(0.0321197509765625,0,0,-0.0321197509765625,26.35,13.7)"
                        id="SvgjsLinearGradient1001">
            <stop stop-opacity="0.2" stop-color="#000000" offset="0"></stop>
            <stop stop-opacity="0.2" stop-color="#000000" offset="1"></stop>
        </linearGradient>
        <linearGradient gradientUnits="userSpaceOnUse" x1="-819.2" x2="819.2"
                        gradientTransform="matrix(0.0213165283203125,0,0,-0.0213165283203125,17.5,14.25)"
                        id="SvgjsLinearGradient1002">
            <stop stop-opacity="0.305882352941176" stop-color="#000000" offset="0.12941176470588237"></stop>
            <stop stop-opacity="0.305882352941176" stop-color="#000000" offset="0.33725490196078434"></stop>
        </linearGradient>
    </defs>
</svg>
