<svg xmlns="http://www.w3.org/2000/svg" xmlns:xlink="http://www.w3.org/1999/xlink" xmlns:svgjs="http://svgjs.com/svgjs" version="1.1">
    <g transform="matrix(1,0,0,1,80,44)">

        <g id="color_1" transform="matrix(1,0,0,1,-17.35,-23.65)">

            <path d="M6.35 7.75 L6.4 7.75 5.65 8.6 5.7 8.65 Q5.3 8.95 5.7 9.3 L6.1 9.65 6.15 9.65 5.85 10 5.15 9.25 4.05 10.85 4.1 10.85 4 11.3 4.3 11.65 4.45 11.7 4.15 12.15 3.6 11.55 2.9 12.8 2.75 12.95 Q2.45 13.15 2.65 13.5 2.85 13.8 3.15 13.75 L2.85 14.25 2.45 13.8 1.95 15.1 1.9 15.15 Q1.45 15.6 2.05 15.95 L1.8 16.55 1.55 16.3 1.15 18.1 1.15 18.25 0.9 19.1 0.25 18.5 Q0.800000000000004 16.7 2.2 13.55 3.2 11.3 3.85 10.35 4.5 9.3 5.25 8.6 L6.25 7.75 6.35 7.75 M0.65 24.5 L0.7 24.3 Q2 16.4 5.5 12 L5.5 11.95 5.65 11.8 8.95 8.05 9.25 7.7 9.3 7.75 Q9.2 8 9.4 8.25 L9.7 8.5 9.9 8.55 9.5 9 8.7 8.35 7.25 10.35 7.35 10.4 Q7.15 10.75 7.4 11 L7.45 11.05 7.9 11.3 7.55 11.8 6.8 11 5.75 12.65 5.85 12.7 5.85 13.15 6.25 13.55 6.35 13.55 6 14.05 5.3 13.35 4.6 14.65 Q4.45 14.75 4.45 15 L4.45 15.05 Q4.45 15.6 5 15.5 L4.65 16 4.15 15.55 3.45 16.95 3.45 17 Q3.35 17.45 3.7 17.6 L3.45 18.15 3.1 17.8 2.45 19.4 2.8 19.7 2.5 20.55 2.15 20.3 1.7 21.9 2.05 22.2 1.8 23.15 1.45 22.85 1.15 24.15 Q1.1 24.5 0.65 24.5 M16.65 3.75 L16.05 4.4 15.9 4.25 12.85 7.4 14.1 8.35 15.2 7.2 15.15 8.4 14.75 8.8 15.1 9.05 15.1 9.6 15.1 10.1 14.2 9.45 13.1 10.7 14.4 11.55 15.15 10.7 15.2 11.9 15.1 12 15.25 12.1 15.4 13.25 14.5 12.7 12.65 15.15 14.15 16.25 15.7 14.3 16.05 15.15 14.85 16.7 15 16.8 Q14.75 17.05 14.75 17.55 L14.8 17.7 14.35 17.4 13.4 18.85 13.4 19.35 13.8 19.6 13.85 19.65 Q14.2 19.8 14.4 19.4 16.2 20.5 17.95 21.2 L16.85 21.6 16.75 21.65 12.95 19.6 12.2 20.9 12.25 20.95 Q12.05 21.35 12.45 21.6 L14.2 22.55 13.55 22.7 11.75 21.7 11.1 22.95 11.45 23.15 10.8 23.2 11.8 20.95 Q13 18.3 13.7 17.6 L13.8 17.05 Q13.65 16.8 13.35 16.75 L12.15 15.85 11.2 17.35 11.25 17.4 Q10.95 17.8 11.4 18.05 L11.85 18.3 11.95 18.3 11.7 18.75 10.75 18.1 10.05 19.25 Q9.65 19.65 10 20 L10.85 20.55 10.65 20.95 9.55 20.2 8.9 21.55 9.05 21.6 Q8.9 21.9 9.15 22.15 L9.8 22.6 9.95 22.65 9.75 23.15 8.55 22.35 8.05 23.55 8.4 23.75 7.35 24.05 Q9.2 18.4 12.75 14.3 12.95 14.05 12.75 13.65 L13.8 12.25 12.55 11.4 10.9 13.55 Q10.45 13.85 10.85 14.25 L11.2 14.55 11.25 14.6 10.95 14.9 10.3 14.35 9.3 15.9 9.35 15.95 Q9.2 16.15 9.3 16.45 L9.7 16.75 9.45 17.1 8.85 16.6 8.05 17.95 8.15 18 Q8.05 18.45 8.45 18.6 L8.6 18.6 8.25 19.2 7.65 18.7 6.95 20.1 7 20.15 Q6.9 20.55 7.2 20.7 L7.45 20.85 7.5 20.85 7.25 21.4 6.6 20.9 6.05 22.15 5.95 22.6 6.2 23 6.55 23.15 6.4 23.55 5.7 23.05 5.25 24.4 5.35 24.45 5.5 24.8 3.95 25.6 4.1 24.9 6.65 19.25 Q7.15 18.1 9.35 15.1 L11 12.7 Q11.95 11.25 12.8 10.45 13.15 10.15 12.8 9.8 L13.5 8.95 12.25 8.05 11.2 9.3 11.25 9.35 11.25 9.85 11.65 10.1 11.75 10.1 11.35 10.5 10.65 9.95 9 12.05 9.05 12.1 Q8.85 12.55 9.2 12.75 L9.6 12.9 9.25 13.45 8.55 12.75 7.5 14.3 7.5 14.35 Q7.4 14.65 7.6 14.85 L8.1 15.2 7.75 15.7 7.05 15.05 6.25 16.4 Q6.05 16.8 6.3 17.05 L6.35 17.05 6.7 17.2 6.4 17.65 5.8 17.15 5.1 18.55 5.2 18.6 Q5.1 18.95 5.4 19.15 L5.5 19.2 5.55 19.25 5.3 19.8 4.75 19.35 4.1 20.8 4.15 20.85 Q4.05 21.35 4.5 21.5 L4.25 22 3.8 21.65 3.3 23.15 3.65 23.4 3.3 24.25 3 24.05 2.4 26.55 1.95 26.75 1.7 26.95 Q1.35 26.95 1.45 26.6 L1.5 26.45 2 26.45 2.3 26.05 Q3.15 19.85 5.7 16.2 L8.95 11.45 Q10.9 8.65 12.5 6.95 L12.6 6.5 15.55 3.5 15.5 3.25 16.3 2.95 16.65 3.75" fill-opacity="1" fill="#9f9f9f" class=""/>


        </g>




    </g>
    <defs>
        <linearGradient gradientUnits="userSpaceOnUse" x1="-819.2" x2="819.2" gradientTransform="matrix(0.0316162109375,0,0,-0.0264434814453125,10.3,0.4)" id="SvgjsLinearGradient1000">
            <stop stop-opacity="0.2" stop-color="#000000" offset="0"/>
            <stop stop-opacity="0.2" stop-color="#000000" offset="0.8588235294117647"/>
            <stop stop-opacity="0.2" stop-color="#000000" offset="1"/>
        </linearGradient>
        <linearGradient gradientUnits="userSpaceOnUse" x1="-819.2" x2="819.2" gradientTransform="matrix(0.0321197509765625,0,0,-0.0321197509765625,26.35,13.7)" id="SvgjsLinearGradient1001">
            <stop stop-opacity="0.2" stop-color="#000000" offset="0"/>
            <stop stop-opacity="0.2" stop-color="#000000" offset="1"/>
        </linearGradient>
        <linearGradient gradientUnits="userSpaceOnUse" x1="-819.2" x2="819.2" gradientTransform="matrix(0.0213165283203125,0,0,-0.0213165283203125,17.5,14.25)" id="SvgjsLinearGradient1002">
            <stop stop-opacity="0.305882352941176" stop-color="#000000" offset="0.12941176470588237"/>
            <stop stop-opacity="0.305882352941176" stop-color="#000000" offset="0.33725490196078434"/>
        </linearGradient>
    </defs>
</svg>
